<?xml version="1.0" encoding="UTF-8" standalone="no"?>
<svg width="487px" height="487px" viewBox="0 0 487 487" version="1.1" xmlns="http://www.w3.org/2000/svg" xmlns:xlink="http://www.w3.org/1999/xlink">
    <!-- Generator: Sketch 3.7 (28169) - http://www.bohemiancoding.com/sketch -->
    <title>Shape</title>
    <desc>Created with Sketch.</desc>
    <defs></defs>
    <g id="Page-1" stroke="none" stroke-width="1" fill="none" fill-rule="evenodd">
        <path d="M395.193,0 L91.198,0 C40.826,0 0,40.826 0,91.198 L0,395.193 C0,445.565 40.826,486.391 91.198,486.391 L395.193,486.391 C445.565,486.391 486.391,445.564 486.391,395.193 L486.391,91.198 C486.392,40.826 445.565,0 395.193,0 L395.193,0 Z M364.186,188.598 L364.368,196.35 C364.368,275.51 304.147,366.709 194.009,366.709 C160.205,366.709 128.741,356.799 102.233,339.805 C106.915,340.352 111.687,340.656 116.521,340.656 C144.58,340.656 170.389,331.08 190.878,315.029 C164.674,314.543 142.573,297.215 134.943,273.443 C138.621,274.112 142.33,274.477 146.221,274.477 C151.693,274.477 156.982,273.778 161.998,272.41 C134.608,266.877 113.967,242.71 113.967,213.709 L113.967,212.949 C122.053,217.448 131.264,220.123 141.083,220.458 C125.032,209.727 114.453,191.396 114.453,170.633 C114.453,159.659 117.402,149.384 122.539,140.538 C152.057,176.774 196.197,200.607 245.961,203.1 C244.927,198.722 244.411,194.132 244.411,189.451 C244.411,156.407 271.223,129.594 304.298,129.594 C321.504,129.594 337.069,136.859 348.012,148.502 C361.631,145.796 374.46,140.811 386.042,133.971 C381.573,147.955 372.089,159.689 359.716,167.106 C371.785,165.677 383.367,162.424 394.098,157.682 C386.073,169.659 375.889,180.208 364.186,188.598 L364.186,188.598 Z" id="Shape" fill="#FFFFFF"></path>
    </g>
</svg>